<?xml version="1.0" standalone="no"?>
<!DOCTYPE svg PUBLIC "-//W3C//DTD SVG 20010904//EN"
 "http://www.w3.org/TR/2001/REC-SVG-20010904/DTD/svg10.dtd">
<svg version="1.0" xmlns="http://www.w3.org/2000/svg"
 width="512.000000pt" height="512.000000pt" viewBox="0 0 512.000000 512.000000"
 preserveAspectRatio="xMidYMid meet">
<metadata>
Created by potrace 1.16, written by Peter Selinger 2001-2019
</metadata>
<g transform="translate(0.000000,512.000000) scale(0.100000,-0.100000)"
fill="#000000" stroke="none">
<path d="M2305 4899 c-38 -5 -88 -7 -110 -4 -22 2 -56 0 -75 -5 -31 -8 -28 -9
20 -5 48 4 45 2 -30 -14 -120 -26 -273 -69 -349 -97 -35 -13 -66 -22 -68 -20
-2 2 12 9 32 16 20 7 34 14 32 17 -6 6 -158 -57 -258 -108 -50 -25 -77 -44
-73 -51 4 -7 3 -8 -4 -4 -16 10 -74 -22 -66 -36 4 -7 3 -8 -5 -4 -11 7 -164
-85 -178 -107 -4 -6 -1 -7 8 -2 12 8 12 6 0 -8 -15 -18 -26 -23 -16 -7 10 17
-12 11 -26 -7 -12 -15 -12 -16 1 -8 13 8 13 7 1 -8 -15 -18 -26 -23 -16 -7 12
19 -12 10 -31 -12 -19 -22 -19 -23 1 -8 20 15 20 14 1 -8 -20 -23 -32 -30 -21
-12 3 6 2 10 -4 10 -19 0 -273 -255 -351 -351 -69 -86 -159 -212 -185 -259
-19 -35 15 9 64 83 80 120 200 263 308 367 l98 95 -111 -115 c-241 -250 -405
-500 -524 -800 -157 -393 -202 -863 -124 -1289 68 -371 240 -745 479 -1041 37
-47 58 -76 46 -66 -12 11 -47 53 -78 93 -31 40 -58 73 -61 73 -7 0 42 -64 121
-158 111 -131 357 -362 321 -299 -4 6 2 3 14 -7 26 -23 29 -34 4 -15 -14 11
-13 10 2 -9 20 -23 42 -31 30 -9 -5 8 -2 8 9 -2 20 -16 23 -26 5 -15 -9 5 -9
2 1 -9 16 -20 36 -23 25 -4 -5 8 -2 8 9 -2 20 -16 23 -26 5 -15 -9 5 -9 2 1
-9 15 -19 36 -23 25 -5 -4 7 -3 8 5 4 6 -4 9 -11 6 -15 -2 -5 13 -20 35 -35
43 -28 55 -32 44 -14 -4 7 -3 8 5 4 6 -4 9 -11 6 -16 -8 -12 33 -33 47 -24 7
4 8 3 4 -4 -8 -14 50 -46 66 -36 7 4 8 3 4 -4 -4 -7 23 -26 73 -51 100 -51
252 -114 258 -108 2 3 -12 10 -32 17 -20 7 -34 14 -32 16 2 2 34 -7 70 -21
230 -86 517 -135 797 -135 280 0 567 49 797 135 36 14 68 23 70 21 2 -2 -12
-9 -32 -16 -20 -7 -34 -14 -32 -17 6 -6 158 57 258 108 50 25 77 44 73 51 -4
7 -3 8 4 4 16 -10 74 22 66 36 -4 7 -3 8 5 4 11 -7 164 85 178 107 3 6 1 7 -5
3 -18 -11 -14 0 5 15 11 10 14 10 9 2 -11 -19 9 -16 25 4 10 11 10 14 2 9 -19
-11 -16 -1 4 15 11 10 14 10 9 2 -12 -22 10 -14 30 9 19 22 19 23 -1 8 -20
-15 -20 -14 -1 8 20 23 32 30 21 12 -3 -5 -2 -10 4 -10 15 0 292 271 286 281
-3 4 25 45 62 91 246 305 416 685 484 1083 27 156 36 458 19 621 -54 537 -276
1008 -664 1414 -112 117 -114 119 -22 30 108 -105 227 -248 307 -367 49 -74
83 -118 64 -83 -26 47 -116 173 -185 259 -110 137 -396 410 -354 339 4 -7 -2
-4 -14 6 -26 23 -29 34 -4 15 14 -11 13 -10 -2 9 -20 23 -42 31 -30 10 5 -9 2
-9 -9 1 -20 16 -23 26 -4 15 8 -5 8 -2 -2 9 -16 20 -36 23 -25 5 5 -9 2 -9 -9
1 -19 15 -23 26 -5 15 6 -4 8 -3 5 3 -14 22 -167 114 -178 107 -8 -4 -9 -3 -5
4 8 14 -50 46 -66 36 -7 -4 -8 -3 -4 4 4 7 -23 26 -73 51 -100 51 -252 114
-258 108 -2 -3 12 -10 32 -17 20 -7 34 -14 32 -17 -3 -2 -22 3 -43 12 -22 9
-97 34 -169 55 -71 21 -121 40 -110 40 17 2 16 3 -5 10 -14 4 -34 8 -45 8 -16
0 -15 -2 5 -8 41 -13 8 -11 -76 5 -188 34 -505 45 -679 24z m655 -1013 c30 -7
46 -15 35 -16 -17 -2 -16 -3 5 -10 34 -11 60 -11 35 0 -42 18 5 9 73 -14 59
-20 142 -59 92 -43 -8 3 -24 8 -35 11 -11 4 13 -9 54 -29 40 -19 78 -32 84
-28 5 3 7 1 4 -4 -4 -6 9 -20 29 -32 40 -24 48 -26 38 -9 -4 7 -3 8 5 4 6 -4
9 -11 6 -16 -6 -10 43 -43 54 -36 5 3 15 -2 22 -12 13 -16 12 -16 -6 -2 -20
15 -20 14 -1 -8 20 -23 42 -30 30 -9 -4 6 32 -26 79 -72 47 -47 84 -88 81 -93
-5 -7 39 -72 69 -103 17 -18 -5 18 -37 60 -17 22 -23 34 -14 26 10 -7 37 -43
62 -80 120 -183 185 -375 202 -597 5 -75 4 -95 -10 -120 -10 -16 -15 -20 -11
-10 5 16 3 17 -10 6 -8 -7 -13 -16 -10 -20 6 -10 -20 -20 -48 -19 -17 1 -15 3
8 9 25 6 26 8 7 9 -13 0 -33 6 -45 13 -19 9 -20 9 -12 -3 6 -8 3 -7 -7 3 -11
12 -18 45 -23 105 -9 113 -37 244 -70 327 -14 36 -23 71 -19 77 5 8 3 9 -6 4
-10 -6 -12 -4 -7 9 4 10 3 15 -3 11 -5 -3 -17 9 -26 27 -33 65 -98 153 -172
232 l-75 81 82 -82 c44 -45 104 -117 132 -160 54 -83 69 -103 49 -63 -30 58
-97 148 -164 218 -88 92 -218 195 -190 150 4 -7 3 -8 -5 -4 -6 4 -9 11 -6 16
8 12 -53 43 -67 34 -7 -4 -8 -3 -4 4 6 10 -61 53 -81 52 -4 -1 9 -10 30 -21
60 -32 43 -30 -30 3 -95 43 -240 78 -358 86 l-100 7 70 6 70 5 -63 2 c-35 1
-73 7 -85 14 -19 9 -20 9 -12 -3 6 -8 2 -6 -7 4 -25 27 -23 76 5 105 22 24 24
24 137 18 63 -3 140 -12 170 -20z m-1075 -277 c7 -7 3 -8 -10 -3 l-20 7 20
-16 c24 -20 39 -22 30 -4 -4 6 21 -16 54 -51 75 -77 144 -192 176 -295 36
-114 34 -144 -19 -219 -39 -56 -122 -145 -101 -109 5 9 3 12 -6 9 -8 -3 -14
-10 -14 -16 0 -5 -4 -14 -9 -19 -5 -5 -6 -2 -1 6 5 9 3 12 -6 9 -8 -3 -13 -11
-11 -17 1 -7 -2 -10 -8 -6 -5 3 -18 1 -27 -5 -17 -11 -17 -11 0 -6 10 3 16 2
13 -3 -3 -4 -51 -23 -107 -42 -56 -19 -103 -39 -106 -46 -7 -17 70 -187 132
-292 57 -96 126 -192 184 -255 20 -21 30 -36 24 -32 -7 4 -13 4 -13 -1 0 -11
102 -113 113 -113 5 0 4 7 -3 15 -25 30 -3 14 31 -22 31 -34 31 -35 4 -13
l-30 25 29 -33 c28 -30 55 -45 41 -22 -11 18 1 11 21 -12 19 -22 19 -23 -1 -9
-11 7 -4 -1 15 -18 19 -17 40 -29 47 -27 7 3 15 0 19 -6 4 -7 3 -8 -4 -4 -7 4
-12 5 -12 2 0 -10 108 -75 200 -121 96 -48 134 -60 60 -19 -55 31 -43 27 83
-26 55 -23 100 -40 101 -38 2 2 16 37 31 78 42 113 81 182 132 231 25 24 42
38 38 30 -5 -9 -3 -12 6 -9 8 3 14 10 14 15 0 6 4 15 9 20 5 5 6 2 1 -6 -5 -9
-3 -12 6 -9 8 3 14 10 14 15 0 6 4 15 9 20 5 5 6 2 1 -6 -5 -9 -3 -12 6 -9 8
3 14 10 14 16 0 5 4 14 9 19 5 5 6 3 2 -4 -4 -7 -2 -13 3 -13 6 0 11 7 11 16
0 14 8 15 48 10 50 -7 172 -44 172 -52 0 -3 -10 -3 -22 1 -20 5 -21 5 -5 -5
10 -7 25 -9 33 -6 10 4 12 2 8 -6 -5 -8 -2 -9 10 -5 11 5 15 3 10 -5 -5 -8 -2
-9 10 -5 10 4 15 3 11 -3 -3 -5 3 -14 14 -19 26 -14 34 -14 25 2 -4 7 -3 9 2
4 5 -5 9 -14 9 -20 0 -5 6 -12 14 -15 9 -3 11 0 6 8 -5 9 -4 11 4 6 6 -4 9
-11 6 -16 -6 -10 43 -43 54 -36 10 6 92 -78 110 -113 8 -15 10 -44 6 -89 -17
-170 -86 -329 -192 -440 -35 -37 -61 -61 -57 -53 4 9 2 12 -7 9 -8 -3 -14 -10
-14 -16 0 -5 -4 -14 -9 -19 -5 -5 -6 -2 -1 6 5 9 3 12 -6 9 -8 -3 -13 -10 -12
-16 2 -6 -4 -9 -12 -6 -7 3 -22 1 -32 -6 -16 -10 -15 -10 7 -6 18 4 16 1 -10
-12 -49 -24 -263 -24 -379 1 -94 20 -245 66 -239 73 3 2 31 -5 63 -16 32 -11
63 -20 69 -19 6 0 -36 17 -94 38 -109 39 -234 98 -332 158 -32 19 -62 32 -67
28 -5 -3 -13 0 -17 6 -5 8 -3 9 6 4 9 -6 11 -4 6 4 -5 7 -14 10 -22 7 -7 -3
-16 0 -20 6 -5 7 -2 8 7 3 12 -8 12 -6 0 8 -16 20 -36 23 -25 5 4 -8 3 -10 -2
-5 -5 5 -9 14 -9 20 0 5 -6 12 -14 15 -9 3 -11 0 -5 -9 7 -12 5 -12 -9 0 -20
16 -23 26 -4 15 8 -5 8 -2 -2 9 -16 20 -36 23 -25 5 5 -9 2 -9 -9 1 -20 16
-23 26 -4 15 8 -5 8 -2 -2 9 -14 18 -36 24 -26 7 12 -19 -2 -10 -26 17 l-24
28 25 -20 25 -20 -19 23 c-11 12 -25 21 -32 18 -6 -2 -25 10 -40 27 l-29 32
35 -30 35 -30 -34 38 c-34 36 -59 50 -45 25 4 -7 -44 37 -105 97 -121 119
-246 260 -246 278 0 13 -93 147 -102 147 -5 0 25 -45 71 -105 17 -22 23 -34
14 -27 -29 24 -154 214 -212 323 -102 195 -156 365 -176 560 -19 196 10 296
117 400 31 30 53 48 49 42 -10 -18 4 -16 25 3 10 9 50 34 91 56 40 22 65 37
56 34 -10 -3 -26 -9 -35 -12 -15 -5 -16 -4 -3 5 27 19 143 54 225 67 81 13
122 11 140 -7z m952 -155 c76 -15 188 -53 181 -60 -2 -2 -28 5 -56 16 -29 11
-58 20 -65 19 -6 0 17 -11 53 -24 36 -14 71 -23 78 -20 8 3 10 0 6 -7 -5 -8
-2 -9 10 -5 11 5 15 3 10 -5 -5 -8 -2 -9 9 -5 9 3 16 2 14 -2 -2 -8 98 -81
110 -81 2 0 1 6 -2 13 -4 6 34 -30 84 -80 76 -79 98 -108 140 -195 63 -127 82
-197 86 -313 2 -88 2 -88 -5 -20 l-7 70 0 -83 c0 -55 -4 -87 -13 -95 -9 -8
-11 -8 -6 0 4 8 -5 10 -31 7 -55 -7 -67 6 -74 78 l-6 63 -1 -56 c-2 -67 12
-89 64 -99 39 -8 39 -8 6 -9 -56 -2 -78 30 -85 124 -7 95 -37 200 -78 273 -16
29 -27 57 -24 61 2 5 -3 15 -13 22 -16 13 -16 12 -2 -6 18 -26 8 -15 -70 70
l-64 70 64 -60 65 -60 -55 58 c-65 70 -136 121 -152 111 -7 -4 -8 -3 -4 4 4 6
-6 18 -23 27 -38 19 -51 19 -25 0 16 -12 12 -12 -21 1 -48 19 -60 29 -25 20
19 -4 18 -2 -6 9 -38 17 -101 31 -69 15 15 -7 9 -8 -25 -3 -25 3 -74 9 -110
13 l-65 7 55 2 c63 3 57 8 -17 14 -36 3 -51 1 -47 -7 3 -6 -4 0 -15 13 -24 27
-27 69 -8 96 12 15 28 18 98 18 l84 0 -75 7 -75 6 63 2 c35 1 97 -5 139 -14z
m-69 -429 c24 -10 41 -19 39 -21 -2 -3 -20 3 -40 11 -20 8 -44 15 -54 15 -10
-1 8 -10 40 -21 32 -11 62 -17 68 -14 5 4 8 2 7 -3 -2 -6 14 -22 35 -36 42
-29 51 -32 42 -13 -4 6 17 -13 46 -43 32 -34 66 -84 87 -130 31 -66 35 -85 36
-160 1 -69 -2 -85 -14 -85 -8 0 -15 -5 -15 -12 0 -6 -4 -15 -9 -20 -5 -5 -6
-3 -2 5 5 8 -2 12 -23 12 -16 0 -37 3 -47 7 -13 5 -15 3 -9 -8 5 -8 1 -7 -10
3 -16 15 -34 95 -39 175 0 11 -5 19 -10 15 -5 -3 -7 2 -3 11 3 9 3 16 -2 14
-4 -1 -25 21 -46 48 -27 36 -31 44 -13 30 13 -11 6 -3 -16 18 -22 21 -45 36
-53 33 -7 -3 -12 0 -10 6 1 6 -4 13 -12 16 -8 3 -11 0 -7 -7 5 -8 0 -8 -21 0
-15 6 -57 15 -93 19 -48 6 -69 14 -82 30 -22 27 -23 80 -2 106 14 18 15 18 4
-4 -6 -13 -9 -28 -6 -35 2 -7 5 -5 5 5 1 9 10 23 22 31 15 11 17 16 7 21 -34
15 161 -3 200 -19z"/>
</g>
</svg>
