<?xml version="1.0" standalone="no"?>
<!DOCTYPE svg PUBLIC "-//W3C//DTD SVG 20010904//EN"
 "http://www.w3.org/TR/2001/REC-SVG-20010904/DTD/svg10.dtd">
<svg version="1.0" xmlns="http://www.w3.org/2000/svg"
 width="920.000000pt" height="1000.000000pt" viewBox="0 0 920.000000 1000.000000"
 preserveAspectRatio="xMidYMid meet">
<metadata>
Created by potrace 1.16, written by Peter Selinger 2001-2019
</metadata>
<g transform="translate(0.000000,1000.000000) scale(0.100000,-0.100000)"
fill="#000000" stroke="none">
<path d="M1710 8689 c-740 -8 -826 -11 -906 -34 -67 -19 -163 -84 -217 -145
-54 -63 -111 -156 -102 -169 4 -8 162 -11 488 -11 l481 0 240 -237 c133 -131
382 -378 556 -548 173 -171 466 -459 650 -641 184 -181 481 -474 660 -650 179
-175 480 -472 670 -660 190 -187 788 -776 1330 -1309 542 -533 1113 -1095
1270 -1250 157 -155 411 -406 565 -558 l280 -275 3 -475 c2 -381 5 -477 16
-486 18 -15 110 53 190 140 69 74 112 159 123 244 5 33 6 609 3 1280 l-6 1220
-3 -1155 c-2 -842 -5 -1148 -13 -1130 -28 65 -59 129 -79 165 -39 72 -41 76
-30 88 13 16 15 1670 2 1695 -6 11 -5 32 2 60 8 30 8 53 0 82 -6 25 -7 43 -1
46 11 7 9 642 -2 664 -5 8 -259 262 -567 565 -307 302 -837 825 -1178 1161
-1964 1935 -2267 2231 -2321 2264 -120 72 -88 70 -784 67 -344 -1 -938 -5
-1320 -8z m2691 -1564 c-77 -264 -143 -493 -147 -509 -5 -22 74 52 322 303
l329 332 82 -83 82 -83 -490 -497 c-270 -274 -495 -498 -500 -498 -6 0 -49 37
-96 83 l-86 83 142 493 c78 271 140 495 138 497 -2 2 -146 -139 -319 -314
l-315 -317 -82 77 c-44 42 -81 80 -81 83 0 4 222 231 493 506 l492 498 88 -87
88 -88 -140 -479z m1512 -873 c-1 -2 -38 -41 -81 -87 l-79 -85 -240 235 -241
235 -103 -106 c-57 -58 -105 -109 -107 -113 -1 -4 96 -105 216 -223 l219 -216
-83 -83 -84 -84 -98 95 c-53 52 -153 150 -222 217 l-125 123 -135 -136 -135
-136 250 -244 249 -244 -84 -85 -85 -84 -339 332 -339 332 498 503 497 502
327 -322 c179 -178 325 -324 324 -326z m6 -668 c-148 -222 -267 -404 -264
-404 3 0 188 115 410 255 223 140 411 255 418 255 21 0 210 -197 204 -212 -3
-8 -120 -198 -261 -422 -141 -225 -256 -409 -254 -411 2 -1 185 123 407 276
l405 277 93 -86 c51 -47 90 -89 86 -93 -7 -6 -886 -584 -1120 -735 l-82 -53
-96 92 -97 92 277 453 c153 249 275 455 273 457 -2 2 -203 -122 -447 -276
-244 -153 -446 -279 -448 -279 -15 0 -193 178 -191 190 2 9 176 285 387 613
l385 598 92 -92 92 -92 -269 -403z"/>
</g>
</svg>
